<?xml version="1.0" standalone="no"?>
<!DOCTYPE svg PUBLIC "-//W3C//DTD SVG 20010904//EN"
 "http://www.w3.org/TR/2001/REC-SVG-20010904/DTD/svg10.dtd">
<svg version="1.0" xmlns="http://www.w3.org/2000/svg"
 width="512.000000pt" height="512.000000pt" viewBox="0 0 512.000000 512.000000"
 preserveAspectRatio="xMidYMid meet">
<metadata>
Created by potrace 1.11, written by Peter Selinger 2001-2013
</metadata>
<g transform="translate(0.000000,512.000000) scale(0.100000,-0.100000)"
fill="#000000" stroke="none">
<path d="M1691 4894 c-160 -43 -305 -189 -373 -374 -43 -117 -53 -182 -52
-330 1 -118 25 -240 58 -305 9 -17 16 -34 16 -38 0 -21 98 -157 144 -200 183
-173 435 -181 630 -22 90 73 185 237 221 380 25 101 27 278 4 387 -39 186
-146 356 -279 444 -98 65 -254 90 -369 58z"/>
<path d="M3180 4892 c-141 -46 -253 -150 -329 -306 -68 -139 -85 -212 -85
-371 -1 -161 17 -242 85 -382 81 -164 208 -275 360 -311 54 -13 191 -9 234 7
151 57 259 161 334 323 58 124 75 202 75 348 1 125 -1 145 -23 230 -60 232
-212 409 -396 463 -72 21 -189 20 -255 -1z"/>
<path d="M347 3660 c-133 -41 -235 -130 -293 -255 -42 -91 -54 -157 -49 -280
12 -345 239 -655 553 -757 88 -29 221 -30 297 -3 110 39 211 125 263 223 16
31 37 90 46 131 17 73 23 204 12 252 -3 13 -8 37 -10 52 -23 141 -111 309
-225 431 -88 93 -253 191 -356 211 -72 15 -182 12 -238 -5z"/>
<path d="M4530 3663 c-363 -92 -633 -499 -584 -878 17 -134 56 -223 129 -298
208 -214 535 -185 790 70 171 171 260 397 250 633 -4 103 -18 157 -60 240 -52
103 -164 196 -275 229 -63 19 -185 21 -250 4z"/>
<path d="M2400 3099 c-380 -57 -735 -336 -941 -739 -55 -110 -144 -200 -249
-254 -205 -106 -342 -242 -439 -433 -35 -71 -78 -193 -87 -249 -3 -22 -9 -58
-14 -82 -12 -65 -4 -258 15 -346 75 -356 316 -627 655 -736 110 -35 175 -44
325 -44 129 0 163 4 245 26 111 30 206 73 306 139 164 108 228 130 364 125
111 -4 175 -28 309 -115 58 -38 132 -81 165 -95 261 -116 577 -112 839 9 92
42 121 75 114 129 -5 38 -3 41 85 127 75 74 94 88 114 83 12 -3 39 -1 59 6 70
23 87 122 28 165 -11 8 -10 20 7 70 12 33 27 87 34 119 11 55 15 61 47 71 19
7 44 26 56 45 21 30 22 42 18 129 -5 120 -11 154 -41 261 -71 244 -244 459
-464 574 -156 82 -216 139 -285 271 -163 307 -381 528 -643 651 -70 33 -198
74 -272 89 -56 10 -290 13 -350 4z"/>
</g>
</svg>
